<svg xmlns="http://www.w3.org/2000/svg" width="33.193" height="31.693" viewBox="0 0 33.193 31.693">
  <g id="estrela_1_" data-name="estrela (1)" transform="translate(-46.777 466.906)">
    <path id="Path_46" data-name="Path 46" d="M33.148,22.988a.926.926,0,0,0-.743-.627L22.05,20.889l-4.66-9.368a.923.923,0,0,0-.824-.511h0a.918.918,0,0,0-.824.518l-4.6,9.395L.787,22.463a.926.926,0,0,0-.743.627.91.91,0,0,0,.238.94L7.8,31.313,6.06,41.627A.925.925,0,0,0,6.966,42.7a.874.874,0,0,0,.429-.109l9.245-4.9,9.272,4.844a.941.941,0,0,0,.422.1h0a.925.925,0,0,0,.92-.92.719.719,0,0,0-.027-.211L25.436,31.258,32.9,23.935A.9.9,0,0,0,33.148,22.988Zm-9.333,7.3a.909.909,0,0,0-.259.818l1.56,8.945-8.053-4.2a.932.932,0,0,0-.858,0L8.179,40.095l1.506-8.959a.919.919,0,0,0-.266-.811L2.906,24l8.986-1.335a.913.913,0,0,0,.688-.5l3.992-8.155,4.047,8.134a.936.936,0,0,0,.695.5l8.993,1.281Z" transform="translate(46.777 -477.917)" fill="#fff"/>
  </g>
</svg>
