<svg xmlns="http://www.w3.org/2000/svg" width="30.62" height="30.621" viewBox="0 0 30.62 30.621">
  <g id="estrela-meio-vazia" transform="translate(-100.083 -115.815)">
    <path id="Path_44" data-name="Path 44" d="M30.585,22.621q-.165-.531-.993-.666l-9.238-1.408-4.14-8.779q-.387-.791-.9-.791-.534,0-.9.791l-4.141,8.779L1.031,21.956q-.828.135-.994.666A1.171,1.171,0,0,0,.46,23.77l6.7,6.83L5.576,40.247a1.563,1.563,0,0,0,.111.994.671.671,0,0,0,.626.357,1.583,1.583,0,0,0,.736-.232l8.263-4.554,8.263,4.554a1.59,1.59,0,0,0,.736.232.67.67,0,0,0,.626-.357,1.566,1.566,0,0,0,.11-.994L23.465,30.6l6.68-6.83A1.16,1.16,0,0,0,30.585,22.621Zm-8.759,6.2-.9.907.221,1.273,1.1,6.85L16.4,34.613l-1.086-.6V15.434l2.926,6.213.552,1.158L20,23l6.552,1Z" transform="translate(100.083 104.838)" fill="#fff"/>
  </g>
</svg>
