<svg id="logotipo-do-instagram" xmlns="http://www.w3.org/2000/svg" width="80" height="80" viewBox="0 0 80 80">
  <path id="Path_96" data-name="Path 96" d="M57.922,0H22.077A22.1,22.1,0,0,0,0,22.077V57.923A22.1,22.1,0,0,0,22.077,80H57.922A22.1,22.1,0,0,0,80,57.923V22.077A22.1,22.1,0,0,0,57.922,0ZM72.9,57.923A15,15,0,0,1,57.923,72.9H22.077A15,15,0,0,1,7.1,57.923V22.077A15,15,0,0,1,22.077,7.1H57.922A15,15,0,0,1,72.9,22.077V57.923Z"/>
  <path id="Path_97" data-name="Path 97" d="M61.582,40.97A20.614,20.614,0,1,0,82.2,61.584,20.637,20.637,0,0,0,61.582,40.97Zm0,34.129A13.516,13.516,0,1,1,75.1,61.584,13.531,13.531,0,0,1,61.582,75.1Z" transform="translate(-21.582 -21.583)"/>
  <path id="Path_98" data-name="Path 98" d="M124.126,28.251a5.2,5.2,0,1,0,3.681,1.524A5.226,5.226,0,0,0,124.126,28.251Z" transform="translate(-62.648 -14.883)"/>
</svg>
