<svg xmlns="http://www.w3.org/2000/svg" width="97.324" height="97.324" viewBox="0 0 97.324 97.324">
  <path id="Path_39" data-name="Path 39" d="M86.91,69.342A11.4,11.4,0,0,0,74.324,52.119V45.524a14.282,14.282,0,0,0,11.405-13.97v-11.6A14.273,14.273,0,0,0,71.473,5.7H60.06A14.243,14.243,0,0,0,48.662,0H25.852A14.273,14.273,0,0,0,11.6,14.257v17.3A14.282,14.282,0,0,0,23,45.524v6.594A11.4,11.4,0,0,0,10.415,69.342,14.279,14.279,0,0,0,0,83.068V94.473a2.851,2.851,0,0,0,2.851,2.851H37.067a2.851,2.851,0,0,0,2.851-2.851V83.068A14.279,14.279,0,0,0,29.5,69.342a11.37,11.37,0,0,0-.917-13.679l9.851-9.851H58.886l9.851,9.851a11.37,11.37,0,0,0-.917,13.679A14.279,14.279,0,0,0,57.406,83.068V94.473a2.851,2.851,0,0,0,2.851,2.851H94.473a2.851,2.851,0,0,0,2.851-2.851V83.068A14.279,14.279,0,0,0,86.91,69.342ZM19.959,57.406a5.7,5.7,0,1,1-5.7,5.7A5.709,5.709,0,0,1,19.959,57.406ZM34.216,83.068v8.554H5.7V83.068a8.564,8.564,0,0,1,8.554-8.554H25.662A8.564,8.564,0,0,1,34.216,83.068Zm23-51.514a8.564,8.564,0,0,1-8.554,8.554H37.257a2.85,2.85,0,0,0-2.016.835L28.7,47.481V42.96a2.851,2.851,0,0,0-2.851-2.851A8.564,8.564,0,0,1,17.3,31.554v-17.3A8.564,8.564,0,0,1,25.852,5.7h22.81a8.564,8.564,0,0,1,8.554,8.554ZM77.365,57.406a5.7,5.7,0,1,1-5.7,5.7A5.709,5.709,0,0,1,77.365,57.406ZM68.621,42.96v4.522l-6.538-6.538a2.85,2.85,0,0,0-2.016-.835H60.06a14.182,14.182,0,0,0,2.859-8.554v-17.3a14.267,14.267,0,0,0-.287-2.851h8.841a8.564,8.564,0,0,1,8.554,8.554v11.6a8.564,8.564,0,0,1-8.554,8.554A2.851,2.851,0,0,0,68.621,42.96Zm23,48.662H63.109V83.068a8.564,8.564,0,0,1,8.554-8.554H83.068a8.564,8.564,0,0,1,8.554,8.554Z" fill="#fff"/>
</svg>
