<svg xmlns="http://www.w3.org/2000/svg" width="67.963" height="87.596" viewBox="0 0 67.963 87.596">
  <g id="javascript" transform="translate(-6.5)">
    <path id="Path_30" data-name="Path 30" d="M73.631,18.406,71.575,16.35,57.221,2l0,0L56.055.829a2.82,2.82,0,0,0-2-.829H10.22C8.427,0,6.5,1.383,6.5,4.419V84.576c0,1.264,1.27,2.495,2.773,2.883.077.021.151.05.23.065a3.681,3.681,0,0,0,.717.072H70.743a3.681,3.681,0,0,0,.717-.072c.079-.015.153-.044.23-.065,1.5-.388,2.773-1.619,2.773-2.883V21.111A3.479,3.479,0,0,0,73.631,18.406ZM56.339,5.384,69.079,18.123H56.339ZM10.22,84.576a.838.838,0,0,1-.3-.074.694.694,0,0,1-.4-.625V61.922H71.442V83.877a.694.694,0,0,1-.4.625.838.838,0,0,1-.3.074ZM9.521,58.9V4.419c0-.328.05-1.4.7-1.4H53.406a2.326,2.326,0,0,0-.088.591v17.2A4.494,4.494,0,0,0,50.3,19.634a1.51,1.51,0,1,0,0,3.021,1.512,1.512,0,0,1,1.51,1.51v6.041A6,6,0,0,0,53.9,34.737a6,6,0,0,0-2.087,4.531v6.041a1.512,1.512,0,0,1-1.51,1.51,1.51,1.51,0,0,0,0,3.021,4.536,4.536,0,0,0,4.531-4.531V39.267a3.024,3.024,0,0,1,3.021-3.021,1.51,1.51,0,0,0,0-3.021,3.024,3.024,0,0,1-3.021-3.021V24.165a4.5,4.5,0,0,0-1.178-3.021h17.2a2.325,2.325,0,0,0,.591-.088c0,.023,0,.032,0,.054V58.9Z" fill="#fff"/>
    <path id="Path_31" data-name="Path 31" d="M27.649,55.364a1.671,1.671,0,0,1-.692,1.435,3.175,3.175,0,0,1-1.744.423,4.524,4.524,0,0,1-.929-.1q-.5-.1-.95-.237c-.3-.091-.581-.186-.837-.288a3.083,3.083,0,0,1-.589-.3l-1.053,1.672a4.565,4.565,0,0,0,1.012.557q.6.247,1.249.444a9.036,9.036,0,0,0,1.26.288,7.178,7.178,0,0,0,1.063.094,8.839,8.839,0,0,0,1.766-.175,4.2,4.2,0,0,0,1.518-.619,3.249,3.249,0,0,0,1.053-1.177,3.794,3.794,0,0,0,.393-1.806V43.72H27.649Z" transform="translate(7.326 22.31)" fill="#fff"/>
    <path id="Path_32" data-name="Path 32" d="M36.507,51.771a8.153,8.153,0,0,0-1.539-.877q-.827-.36-1.528-.743a4.576,4.576,0,0,1-1.177-.888,1.868,1.868,0,0,1-.474-1.332,1.656,1.656,0,0,1,.165-.692,2.2,2.2,0,0,1,.455-.651,2.689,2.689,0,0,1,.662-.485,2.1,2.1,0,0,1,.785-.237,7.555,7.555,0,0,1,1.219-.021,3.182,3.182,0,0,1,.764.145,2.1,2.1,0,0,1,.444.207,2.365,2.365,0,0,0,.279.165,1.909,1.909,0,0,0,.124-.207c.068-.124.151-.279.248-.465s.2-.385.31-.6.207-.409.288-.589a4.231,4.231,0,0,0-1.569-.568,10.856,10.856,0,0,0-1.92-.175,5.35,5.35,0,0,0-1.766.288,4.447,4.447,0,0,0-1.466.837,3.982,3.982,0,0,0-1,1.332,4.16,4.16,0,0,0-.375,1.8,3.381,3.381,0,0,0,.474,1.858,4.93,4.93,0,0,0,1.2,1.29,9.324,9.324,0,0,0,1.548.95q.825.4,1.539.8a5.11,5.11,0,0,1,1.187.9,1.672,1.672,0,0,1,.474,1.2,2.194,2.194,0,0,1-.671,1.744,2.847,2.847,0,0,1-1.93.589,5.256,5.256,0,0,1-.888-.083,8.88,8.88,0,0,1-.95-.217c-.317-.091-.622-.186-.918-.288a4.354,4.354,0,0,1-.732-.32l-.433,1.776a3.253,3.253,0,0,0,.837.527,5.529,5.529,0,0,0,1.022.341,8.04,8.04,0,0,0,1.063.175c.35.033.692.051,1.022.051a5.7,5.7,0,0,0,2.065-.35,4.609,4.609,0,0,0,1.528-.939,4.208,4.208,0,0,0,.961-1.362,3.916,3.916,0,0,0,.341-1.6,3.766,3.766,0,0,0-.474-1.992A4.513,4.513,0,0,0,36.507,51.771Z" transform="translate(11.651 22.329)" fill="#fff"/>
    <path id="Path_33" data-name="Path 33" d="M23.051,23.572V17.531a1.512,1.512,0,0,1,1.51-1.51,1.51,1.51,0,1,0,0-3.021,4.536,4.536,0,0,0-4.531,4.531v6.041a3.024,3.024,0,0,1-3.021,3.021,1.51,1.51,0,1,0,0,3.021,3.024,3.024,0,0,1,3.021,3.021v6.041a4.536,4.536,0,0,0,4.531,4.531,1.51,1.51,0,0,0,0-3.021,1.512,1.512,0,0,1-1.51-1.51V32.634A6,6,0,0,0,20.964,28.1,6,6,0,0,0,23.051,23.572Z" transform="translate(4.593 6.634)" fill="#fff"/>
    <circle id="Ellipse_1" data-name="Ellipse 1" cx="2.265" cy="2.265" r="2.265" transform="translate(37.461 27.185)" fill="#fff"/>
    <path id="Path_34" data-name="Path 34" d="M29.01,25a1.51,1.51,0,0,0-1.51,1.51v4.531a1.51,1.51,0,1,0,3.021,0V26.51A1.51,1.51,0,0,0,29.01,25Z" transform="translate(10.716 12.757)" fill="#fff"/>
  </g>
</svg>
