<svg id="placa-do-github" xmlns="http://www.w3.org/2000/svg" width="76.702" height="76.703" viewBox="0 0 76.702 76.703">
  <g id="Group_48" data-name="Group 48" transform="translate(0 0)">
    <path id="Path_100" data-name="Path 100" d="M154.821,352.526q-.8.149-.7.749t.9.4q.8-.2.7-.7Q155.62,352.426,154.821,352.526Z" transform="translate(-127.155 -290.854)"/>
    <path id="Path_101" data-name="Path 101" d="M138.129,354.822c-.533,0-.8.182-.8.549q0,.649.849.549.8,0,.8-.549Q138.978,354.722,138.129,354.822Z" transform="translate(-113.31 -292.75)"/>
    <path id="Path_102" data-name="Path 102" d="M119.45,352.122q-.2.55.649.749.749.3.949-.3.15-.549-.649-.8C119.9,351.64,119.583,351.755,119.45,352.122Z" transform="translate(-98.526 -290.202)"/>
    <path id="Path_103" data-name="Path 103" d="M72.483,4.219A13.852,13.852,0,0,0,62.32,0H14.382A13.855,13.855,0,0,0,4.219,4.219,13.854,13.854,0,0,0,0,14.382v47.94A13.852,13.852,0,0,0,4.219,72.483,13.853,13.853,0,0,0,14.382,76.7H25.567a13.507,13.507,0,0,0,1.648-.074,1.933,1.933,0,0,0,1.1-.65,2.326,2.326,0,0,0,.549-1.672q0-.149-.025-3.4t-.025-5.144l-1.149.2a14.7,14.7,0,0,1-2.772.175,21.326,21.326,0,0,1-3.47-.349,7.78,7.78,0,0,1-3.346-1.5,6.338,6.338,0,0,1-2.2-3.071l-.5-1.149a12.475,12.475,0,0,0-1.573-2.546,6.027,6.027,0,0,0-2.172-1.9l-.35-.25a3.672,3.672,0,0,1-.649-.6,2.775,2.775,0,0,1-.449-.7q-.15-.35.25-.575a3.247,3.247,0,0,1,1.448-.224l1,.15a7.28,7.28,0,0,1,2.472,1.2,8.059,8.059,0,0,1,2.422,2.6,8.8,8.8,0,0,0,2.772,3.121,5.876,5.876,0,0,0,3.271,1.074,14.187,14.187,0,0,0,2.846-.249,9.942,9.942,0,0,0,2.247-.75,8.094,8.094,0,0,1,2.447-5.144,34.2,34.2,0,0,1-5.119-.9,20.4,20.4,0,0,1-4.694-1.948,13.439,13.439,0,0,1-4.02-3.346A16.086,16.086,0,0,1,14.9,43.842a24.94,24.94,0,0,1-1.024-7.491,14.566,14.566,0,0,1,3.945-10.287q-1.848-4.544.349-10.187,1.448-.45,4.295.674a30.116,30.116,0,0,1,4.17,1.923q1.324.8,2.122,1.349a36.054,36.054,0,0,1,19.176,0l1.9-1.2a26.864,26.864,0,0,1,4.595-2.2,6.541,6.541,0,0,1,4.045-.549q2.246,5.643.4,10.187a14.567,14.567,0,0,1,3.946,10.287A25.177,25.177,0,0,1,61.8,43.867a15.428,15.428,0,0,1-2.646,5.244,13.964,13.964,0,0,1-4.045,3.321,20.372,20.372,0,0,1-4.694,1.947,34.172,34.172,0,0,1-5.118.9q2.595,2.246,2.6,7.09V74.3a3.214,3.214,0,0,0,.249,1.373,1.38,1.38,0,0,0,.8.724,4.425,4.425,0,0,0,.974.249,11.213,11.213,0,0,0,1.223.05H62.321A14.407,14.407,0,0,0,76.7,62.319V14.382A13.855,13.855,0,0,0,72.483,4.219Z" transform="translate(0 0)"/>
    <path id="Path_104" data-name="Path 104" d="M86.072,318.627q-.349.249.1.8.5.5.8.15.349-.249-.1-.8Q86.372,318.328,86.072,318.627Z" transform="translate(-70.892 -262.798)"/>
    <path id="Path_105" data-name="Path 105" d="M77.211,311.318q-.15.35.35.6a.426.426,0,0,0,.649-.1q.15-.35-.35-.6Q77.361,311.067,77.211,311.318Z" transform="translate(-63.678 -256.737)"/>
    <path id="Path_106" data-name="Path 106" d="M94.585,329.752q-.45.249,0,.9t.849.349q.45-.35,0-.949C95.168,329.619,94.884,329.518,94.585,329.752Z" transform="translate(-77.856 -271.975)"/>
    <path id="Path_107" data-name="Path 107" d="M104.772,342.267c-.3.267-.234.582.2.949q.6.6,1,.148.4-.4-.2-.948Q105.172,341.819,104.772,342.267Z" transform="translate(-86.295 -282.244)"/>
  </g>
</svg>
