<svg xmlns="http://www.w3.org/2000/svg" width="86.556" height="89.989" viewBox="0 0 86.556 89.989">
  <g id="formato-de-arquivo-css-com-colchetes" transform="translate(-11.176)">
    <path id="Path_41" data-name="Path 41" d="M64.351,82.22c.119.006.237.018.358.018H91.953a5.786,5.786,0,0,0,5.779-5.779V13.3a5.786,5.786,0,0,0-5.779-5.779H64.708c-.12,0-.239.012-.358.017V0L11.176,7.1V82.709l53.175,7.28Zm0-71.361a2.54,2.54,0,0,1,.358-.035H91.953A2.479,2.479,0,0,1,94.43,13.3V76.459a2.48,2.48,0,0,1-2.477,2.477H64.708a2.382,2.382,0,0,1-.358-.037V10.86ZM24.529,49.439a8.811,8.811,0,0,0,3.1-.516l.57,3.093a10.029,10.029,0,0,1-4.231.638c-5.534-.149-8.312-3.841-8.312-8.634,0-5.739,3.808-9.034,8.673-9.164a9.227,9.227,0,0,1,4.069.671l-.77,3.149a7.643,7.643,0,0,0-3.128-.6c-2.906.051-5.129,1.93-5.129,5.716C19.375,47.205,21.266,49.384,24.529,49.439ZM34.9,52.946a11.111,11.111,0,0,1-4.847-1.2l.777-3.275a9.747,9.747,0,0,0,4.3,1.172c1.814.031,2.78-.726,2.78-1.9,0-1.119-.835-1.764-2.935-2.545-2.861-1.033-4.7-2.654-4.7-5.209,0-3,2.422-5.356,6.513-5.465a10.6,10.6,0,0,1,4.534.8l-.907,3.323a8.22,8.22,0,0,0-3.707-.8c-1.708.027-2.53.834-2.53,1.756,0,1.134.976,1.629,3.235,2.49,3.136,1.168,4.632,2.838,4.632,5.4C42.044,50.546,39.725,53.075,34.9,52.946Zm14.487.385a12.431,12.431,0,0,1-5.26-1.251l.843-3.407a10.929,10.929,0,0,0,4.668,1.222c1.969.034,3.019-.755,3.019-1.976,0-1.168-.908-1.841-3.188-2.655-3.1-1.078-5.1-2.763-5.1-5.424,0-3.121,2.629-5.579,7.068-5.7a11.935,11.935,0,0,1,4.928.824l-.985,3.465a9.283,9.283,0,0,0-4.028-.827c-1.853.031-2.746.871-2.746,1.832,0,1.18,1.059,1.7,3.51,2.593,3.409,1.218,5.034,2.959,5.034,5.631C57.146,50.838,54.626,53.471,49.382,53.331Z" transform="translate(0)" fill="#fff"/>
    <path id="Path_42" data-name="Path 42" d="M361.553,210.884a19.984,19.984,0,0,1-.288,2.919,20.406,20.406,0,0,0-.29,2.955c0,3.638,2.235,4.939,5.228,4.939h.756v-1.985h-.648c-2.018,0-2.848-1.117-2.848-3.133a16.3,16.3,0,0,1,.253-2.6,16.389,16.389,0,0,0,.252-2.738c.037-2.306-.973-3.532-2.6-3.929v-.069c1.622-.433,2.632-1.589,2.6-3.894a16.8,16.8,0,0,0-.252-2.738,15.853,15.853,0,0,1-.253-2.559c0-1.946.72-3.1,2.848-3.1h.648v-1.985H366.2c-3.064,0-5.228,1.406-5.228,4.723a20.872,20.872,0,0,0,.29,2.993,21.39,21.39,0,0,1,.288,3.025c0,1.261-.36,2.667-2.918,2.667v1.837C361.193,208.216,361.553,209.765,361.553,210.884Z" transform="translate(-294.094 -163.334)" fill="#fff"/>
    <path id="Path_43" data-name="Path 43" d="M480.346,216.758a20.377,20.377,0,0,0-.29-2.955,20.09,20.09,0,0,1-.289-2.919c0-1.119.362-2.668,2.92-2.668v-1.837c-2.559,0-2.92-1.406-2.92-2.667a21.474,21.474,0,0,1,.289-3.025,20.893,20.893,0,0,0,.29-2.993c0-3.317-2.2-4.723-5.262-4.723h-.721v1.985h.649c2.091.034,2.848,1.152,2.848,3.1a21.539,21.539,0,0,1-.253,2.559,16.518,16.518,0,0,0-.29,2.738c0,2.306,1.01,3.46,2.6,3.894v.069c-1.587.4-2.6,1.623-2.6,3.929a16.015,16.015,0,0,0,.29,2.738,22.153,22.153,0,0,1,.253,2.6c0,2.016-.867,3.1-2.883,3.133h-.614V221.7h.757C478.076,221.7,480.346,220.4,480.346,216.758Z" transform="translate(-392.048 -163.333)" fill="#fff"/>
  </g>
</svg>
