<svg id="arquivo-html-com-simbolo-de-codigo" xmlns="http://www.w3.org/2000/svg" width="72.464" height="99.883" viewBox="0 0 72.464 99.883">
  <g id="Group_2" data-name="Group 2">
    <path id="Path_12" data-name="Path 12" d="M148.045,23.934a1.947,1.947,0,0,0-.466-1.268L128.32.668A.084.084,0,0,0,128.3.655a1.927,1.927,0,0,0-.388-.327c-.042-.027-.084-.053-.128-.077A2.041,2.041,0,0,0,127.4.09c-.036-.011-.069-.026-.107-.034A1.9,1.9,0,0,0,126.847,0H79.517A3.921,3.921,0,0,0,75.6,3.917V95.965a3.922,3.922,0,0,0,3.917,3.917h64.63a3.922,3.922,0,0,0,3.917-3.917V24.154A2.194,2.194,0,0,0,148.045,23.934ZM79.517,3.917h45.372v20.04a1.958,1.958,0,0,0,1.958,1.958h17.3l0,40.591H79.517Zm15.1,86.628H90.69V83.063H84.208v7.482H80.261V72.663h3.948v6.872H90.69V72.663h3.925ZM110.1,76.059h-4.749V90.545h-3.949V76.059H96.734v-3.4H110.1Zm16.963,14.486-.258-6.845c-.077-2.149-.155-4.749-.155-7.35h-.077c-.543,2.282-1.266,4.829-1.938,6.925l-2.115,6.977h-3.071l-1.859-6.924c-.568-2.1-1.163-4.644-1.576-6.979h-.052c-.1,2.416-.182,5.175-.307,7.4l-.312,6.792h-3.639l1.109-17.883h5.241l1.7,5.969c.543,2.069,1.084,4.3,1.473,6.395h.077c.492-2.07,1.084-4.43,1.652-6.421l1.859-5.943h5.137l.954,17.882h-3.848Zm17.739,0H133.937V72.663h3.949V87.148h6.919v3.4Z" transform="translate(-75.6 0)" fill="#fff"/>
    <path id="Path_13" data-name="Path 13" d="M154.132,205.485l15,6.97v-3.313l-11.348-4.969v-.063l11.348-4.971v-3.313l-15,6.97Z" transform="translate(-139.891 -160.316)" fill="#fff"/>
    <path id="Path_14" data-name="Path 14" d="M249.642,192.113H252.8l6.688-22.661h-3.156Z" transform="translate(-218.081 -138.724)" fill="#fff"/>
    <path id="Path_15" data-name="Path 15" d="M313.938,199.14l11.6,4.971v.063l-11.6,4.969v3.313l15-6.876V202.7l-15-6.876Z" transform="translate(-270.718 -160.316)" fill="#fff"/>
  </g>
</svg>
