<svg xmlns="http://www.w3.org/2000/svg" width="95.456" height="95.458" viewBox="0 0 95.456 95.458">
  <g id="logotipo-wordpress" transform="translate(25.999 -721)">
    <path id="Path_28" data-name="Path 28" d="M47.731,0A47.729,47.729,0,1,0,95.457,47.727,47.782,47.782,0,0,0,47.731,0ZM4.818,47.727A42.735,42.735,0,0,1,8.533,30.264L29,86.349A42.923,42.923,0,0,1,4.818,47.727ZM47.731,90.643a42.892,42.892,0,0,1-12.123-1.749L48.483,51.482,61.676,87.619a3.61,3.61,0,0,0,.305.591A42.853,42.853,0,0,1,47.731,90.643Zm5.913-63.035c2.583-.136,4.913-.409,4.913-.409a1.773,1.773,0,0,0-.275-3.535s-6.95.545-11.438.545c-4.215,0-11.3-.545-11.3-.545-2.313-.136-2.583,3.4-.271,3.535,0,0,2.19.273,4.5.409l6.685,18.319L37.064,74.091,21.439,27.609c2.587-.135,4.912-.409,4.912-.409a1.772,1.772,0,0,0-.276-3.533s-6.947.545-11.436.545c-.806,0-1.756-.021-2.761-.052a42.9,42.9,0,0,1,64.831-8.079c-.185-.01-.365-.035-.557-.035a7.431,7.431,0,0,0-7.205,7.617c0,3.535,2.038,6.529,4.214,10.064A22.6,22.6,0,0,1,76.7,45.562c0,3.674-1.41,7.935-3.266,13.872l-4.28,14.3ZM69.3,84.822l13.108-37.9a40.456,40.456,0,0,0,3.263-15.371,32.621,32.621,0,0,0-.29-4.413A42.918,42.918,0,0,1,69.3,84.822Z" transform="translate(-26 721)" fill="#fff"/>
  </g>
</svg>
