<svg id="Group_55" data-name="Group 55" xmlns="http://www.w3.org/2000/svg" width="98" height="68.906" viewBox="0 0 98 68.906">
  <g id="Group_54" data-name="Group 54">
    <path id="Path_111" data-name="Path 111" d="M235.349,182.764c-1.491,0-2.982.535-2.982,1.8v13l-6.192-11.811c-1.453-2.791-2.255-2.982-4.4-2.982-1.491,0-2.982.573-2.982,1.835v24.273c0,1.223,1.491,1.835,2.982,1.835s2.982-.612,2.982-1.835v-13l7.263,13.226c.726,1.338,1.95,1.606,3.326,1.606,1.491,0,2.981-.612,2.981-1.835V184.561C238.33,183.3,236.839,182.764,235.349,182.764Z" transform="translate(-176.918 -162.329)" fill="#fff"/>
    <path id="Path_112" data-name="Path 112" d="M127.365,187.963c1.147,0,1.8-1.223,1.8-2.637,0-1.223-.535-2.561-1.8-2.561H113.757c-1.3,0-2.6.612-2.6,1.835v24.273c0,1.223,1.3,1.835,2.6,1.835h13.608c1.261,0,1.8-1.338,1.8-2.561,0-1.414-.65-2.637-1.8-2.637H117.121v-6.5h5.734c1.262,0,1.8-1.223,1.8-2.255,0-1.223-.65-2.332-1.8-2.332h-5.734v-6.46h10.244Z" transform="translate(-89.882 -162.329)" fill="#fff"/>
    <path id="Path_113" data-name="Path 113" d="M83.863,110.453,97.63,81.471A3.828,3.828,0,0,0,94.172,76H3.828A3.828,3.828,0,0,0,0,79.828v61.25a3.828,3.828,0,0,0,3.828,3.828H94.172a3.828,3.828,0,0,0,3.458-5.471ZM7.656,137.25V83.656H88.115L76.167,108.811a3.828,3.828,0,0,0,0,3.285L88.115,137.25Z" transform="translate(0 -76)" fill="#fff"/>
  </g>
</svg>
