<svg id="whatsapp" xmlns="http://www.w3.org/2000/svg" width="76.703" height="76.703" viewBox="0 0 76.703 76.703">
  <g id="Group_50" data-name="Group 50" transform="translate(28.11 27.897)">
    <g id="Group_49" data-name="Group 49">
      <path id="Path_108" data-name="Path 108" d="M203.433,195.265c-.136-.22-.49-.356-1.022-.621s-3.167-1.546-3.655-1.725a1.783,1.783,0,0,0-.574-.139.739.739,0,0,0-.631.4c-.356.532-1.383,1.725-1.692,2.081a.742.742,0,0,1-.574.3,1.318,1.318,0,0,1-.581-.173,14.435,14.435,0,0,1-4.3-2.628,16.135,16.135,0,0,1-2.977-3.677c-.312-.527-.032-.817.238-1.079.24-.245.532-.624.8-.933A3.515,3.515,0,0,0,189,186.2a.972.972,0,0,0-.047-.93c-.131-.265-1.2-2.875-1.65-3.939-.332-.792-.666-.893-.943-.893-.094,0-.183.012-.262.012-.307,0-.661-.047-1.022-.047a1.968,1.968,0,0,0-1.425.668,5.921,5.921,0,0,0-1.873,4.422,10.215,10.215,0,0,0,2.187,5.485c.265.356,3.7,5.886,9.133,8.012,3.15,1.232,4.476,1.512,5.223,1.512a8.545,8.545,0,0,0,1.2-.186c.977-.087,3.162-1.287,3.61-2.524A4.374,4.374,0,0,0,203.433,195.265Z" transform="translate(-181.776 -180.4)"/>
    </g>
  </g>
  <g id="Group_53" data-name="Group 53">
    <g id="Group_52" data-name="Group 52">
      <g id="Group_51" data-name="Group 51">
        <path id="Path_109" data-name="Path 109" d="M56.127,0H20.576A20.852,20.852,0,0,0,0,20.576V56.124A20.853,20.853,0,0,0,20.576,76.7h35.55A20.855,20.855,0,0,0,76.7,56.122V20.576A20.852,20.852,0,0,0,56.127,0ZM71.754,56.122a15.838,15.838,0,0,1-15.628,15.63H20.576A15.838,15.838,0,0,1,4.949,56.122V20.576A15.839,15.839,0,0,1,20.576,4.949h35.55A15.837,15.837,0,0,1,71.754,20.576Z"/>
        <path id="Path_110" data-name="Path 110" d="M113.431,88.32a24.231,24.231,0,0,0-24.285,24.122,23.947,23.947,0,0,0,2.9,11.439l-3.575,10.555a2.474,2.474,0,0,0,3.093,3.152l11.1-3.523a24.51,24.51,0,0,0,10.773,2.494,24.12,24.12,0,1,0,0-48.239Zm0,43.292a19.458,19.458,0,0,1-9.35-2.385,2.483,2.483,0,0,0-1.942-.188l-7.415,2.353,2.365-6.977a2.479,2.479,0,0,0-.23-2.083,19,19,0,0,1-2.764-9.887,19.34,19.34,0,1,1,19.336,19.168Z" transform="translate(-74.676 -74.662)"/>
      </g>
    </g>
  </g>
</svg>
