<svg xmlns="http://www.w3.org/2000/svg" width="40" height="40" viewBox="0 0 40 40">
  <g id="_118239" data-name="118239" transform="translate(-41 146)">
    <g id="Group_1" data-name="Group 1" transform="translate(41 -146)">
      <path id="Path_6" data-name="Path 6" d="M98.873,84.931a1.665,1.665,0,0,0,0-3.331h-.008a1.665,1.665,0,1,0,.008,3.331Z" transform="translate(-90.163 -75.837)" fill="#fff"/>
      <path id="Path_7" data-name="Path 7" d="M202.673,84.931a1.665,1.665,0,1,0,0-3.331h-.008a1.665,1.665,0,1,0,.008,3.331Z" transform="translate(-185.49 -75.837)" fill="#fff"/>
      <path id="Path_8" data-name="Path 8" d="M298.19,242.841l-4.4,4.4a1.665,1.665,0,0,0,0,2.359,1.7,1.7,0,0,0,2.359,0l5.576-5.576a1.665,1.665,0,0,0,0-2.359l-5.576-5.576a1.668,1.668,0,0,0-2.359,2.359Z" transform="translate(-270.255 -217.265)" fill="#fff"/>
      <path id="Path_9" data-name="Path 9" d="M115.565,249.477a1.668,1.668,0,1,0,2.359-2.359l-4.4-4.4,4.4-4.4a1.665,1.665,0,0,0,0-2.359,1.7,1.7,0,0,0-2.359,0l-5.576,5.576a1.665,1.665,0,0,0,0,2.359Z" transform="translate(-101.459 -217.151)" fill="#fff"/>
      <path id="Path_10" data-name="Path 10" d="M49.335,11H12.665A1.662,1.662,0,0,0,11,12.665V49.335A1.662,1.662,0,0,0,12.665,51H49.335A1.662,1.662,0,0,0,51,49.335V12.665A1.662,1.662,0,0,0,49.335,11ZM47.669,47.669H14.331V25.539H47.661V47.669Zm0-25.469H14.331V14.331H47.661V22.2Z" transform="translate(-11 -11)" fill="#fff"/>
    </g>
  </g>
</svg>
